<svg xmlns="http://www.w3.org/2000/svg" fill-rule="evenodd" stroke-linejoin="round" stroke-miterlimit="2" clip-rule="evenodd" viewBox="0 0 37 37">
  <path fill="#fff" d="M13.9 36v-3.2c-5.2 1.1-6.3-2.6-6.3-2.6-.8-2.2-2-2.7-2-2.7-1.7-1.2.1-1.2.1-1.2 1.9.1 2.8 2 2.8 2 1.7 2.8 4.4 2 5.4 1.5a4 4 0 011.2-2.5c-4.1-.5-8.4-2.1-8.4-9.4 0-2 .7-3.7 1.9-5a7 7 0 01.2-5s1.5-.6 5 1.9a17.3 17.3 0 019.3 0c3.5-2.5 5-2 5-2a7 7 0 01.2 5c1.2 1.4 2 3 2 5.1 0 7.3-4.4 9-8.5 9.4.7.6 1.3 1.7 1.3 3.5V36c0 .5.3 1 1.2.9a18.9 18.9 0 0012.6-18C37 8.5 28.7 0 18.5 0A18.7 18.7 0 000 19c0 8.3 5.3 15.4 12.6 17.9 1 .2 1.3-.4 1.3-1z"/>
</svg>
